<svg xmlns="http://www.w3.org/2000/svg" xmlns:xlink="http://www.w3.org/1999/xlink" width="450" zoomAndPan="magnify" viewBox="0 0 337.5 284.999983" height="380" preserveAspectRatio="xMidYMid meet" version="1.0"><defs><clipPath id="0f45400caf"><path d="M 5.292969 6 L 331.808594 6 L 331.808594 279 L 5.292969 279 Z M 5.292969 6 " clip-rule="nonzero"/></clipPath><clipPath id="a4740bfc1e"><path d="M 5.292969 115.691406 C 5.292969 55.597656 54.003906 6.886719 114.097656 6.886719 L 222.898438 6.886719 C 282.992188 6.886719 331.703125 55.597656 331.703125 115.691406 C 331.703125 175.78125 282.992188 224.492188 222.898438 224.492188 L 181.433594 224.492188 L 204.292969 255.480469 C 213.214844 267.558594 199.636719 283.378906 186.339844 276.402344 L 67.746094 214.15625 C 65.425781 213.066406 63.144531 211.890625 60.910156 210.636719 C 58.671875 209.382812 56.480469 208.054688 54.335938 206.644531 C 52.195312 205.234375 50.101562 203.753906 48.066406 202.195312 C 46.027344 200.640625 44.046875 199.015625 42.121094 197.316406 C 40.199219 195.621094 38.335938 193.859375 36.539062 192.03125 C 34.738281 190.203125 33.007812 188.3125 31.34375 186.363281 C 29.675781 184.410156 28.082031 182.402344 26.558594 180.339844 C 25.035156 178.277344 23.589844 176.164062 22.214844 173.996094 C 20.839844 171.832031 19.546875 169.617188 18.328125 167.363281 C 17.109375 165.105469 15.976562 162.804688 14.921875 160.46875 C 13.863281 158.128906 12.894531 155.757812 12.007812 153.351562 C 11.121094 150.945312 10.320312 148.511719 9.605469 146.046875 C 8.890625 143.585938 8.261719 141.097656 7.722656 138.589844 C 7.183594 136.085938 6.734375 133.5625 6.375 131.023438 C 6.011719 128.480469 5.742188 125.933594 5.5625 123.375 C 5.382812 120.816406 5.292969 118.253906 5.292969 115.691406 M 50.988281 115.691406 C 50.988281 113.625 51.089844 111.5625 51.292969 109.503906 C 51.496094 107.449219 51.800781 105.40625 52.203125 103.378906 C 52.605469 101.351562 53.105469 99.347656 53.707031 97.371094 C 54.308594 95.394531 55.003906 93.449219 55.792969 91.539062 C 56.585938 89.632812 57.46875 87.765625 58.441406 85.941406 C 59.414062 84.121094 60.476562 82.347656 61.625 80.628906 C 62.773438 78.910156 64.003906 77.253906 65.3125 75.65625 C 66.625 74.058594 68.011719 72.527344 69.472656 71.066406 C 70.933594 69.605469 72.464844 68.21875 74.0625 66.910156 C 75.660156 65.597656 77.316406 64.367188 79.035156 63.21875 C 80.753906 62.070312 82.523438 61.011719 84.347656 60.035156 C 86.171875 59.0625 88.035156 58.179688 89.945312 57.386719 C 91.855469 56.597656 93.800781 55.902344 95.777344 55.300781 C 97.753906 54.703125 99.757812 54.199219 101.785156 53.796875 C 103.8125 53.394531 105.851562 53.089844 107.910156 52.886719 C 109.96875 52.683594 112.027344 52.585938 114.097656 52.585938 L 222.898438 52.585938 C 224.964844 52.585938 227.027344 52.683594 229.085938 52.886719 C 231.140625 53.089844 233.183594 53.394531 235.210938 53.796875 C 237.238281 54.199219 239.242188 54.703125 241.21875 55.300781 C 243.195312 55.902344 245.140625 56.597656 247.050781 57.386719 C 248.957031 58.179688 250.824219 59.0625 252.648438 60.035156 C 254.46875 61.011719 256.242188 62.070312 257.960938 63.21875 C 259.679688 64.367188 261.335938 65.597656 262.933594 66.910156 C 264.53125 68.21875 266.0625 69.605469 267.523438 71.066406 C 268.984375 72.527344 270.371094 74.058594 271.679688 75.65625 C 272.992188 77.253906 274.222656 78.910156 275.371094 80.628906 C 276.519531 82.347656 277.578125 84.121094 278.554688 85.941406 C 279.527344 87.765625 280.410156 89.632812 281.203125 91.539062 C 281.992188 93.449219 282.6875 95.394531 283.289062 97.371094 C 283.886719 99.347656 284.390625 101.351562 284.792969 103.378906 C 285.195312 105.40625 285.5 107.449219 285.703125 109.503906 C 285.902344 111.5625 286.003906 113.625 286.003906 115.691406 C 286.003906 117.757812 285.902344 119.820312 285.703125 121.875 C 285.5 123.933594 285.195312 125.972656 284.792969 128 C 284.390625 130.027344 283.886719 132.03125 283.289062 134.007812 C 282.6875 135.988281 281.992188 137.929688 281.203125 139.839844 C 280.410156 141.75 279.527344 143.617188 278.554688 145.4375 C 277.578125 147.261719 276.519531 149.03125 275.371094 150.75 C 274.222656 152.46875 272.992188 154.125 271.679688 155.722656 C 270.371094 157.320312 268.984375 158.851562 267.523438 160.3125 C 266.0625 161.773438 264.53125 163.160156 262.933594 164.472656 C 261.335938 165.78125 259.679688 167.011719 257.960938 168.160156 C 256.242188 169.308594 254.46875 170.371094 252.648438 171.34375 C 250.824219 172.320312 248.957031 173.203125 247.050781 173.992188 C 245.140625 174.785156 243.195312 175.480469 241.21875 176.078125 C 239.242188 176.679688 237.238281 177.179688 235.210938 177.582031 C 233.183594 177.988281 231.140625 178.289062 229.085938 178.492188 C 227.027344 178.695312 224.964844 178.796875 222.898438 178.796875 L 114.097656 178.796875 C 112.027344 178.796875 109.96875 178.695312 107.910156 178.492188 C 105.851562 178.289062 103.8125 177.988281 101.785156 177.582031 C 99.757812 177.179688 97.753906 176.679688 95.777344 176.078125 C 93.800781 175.480469 91.855469 174.785156 89.945312 173.992188 C 88.035156 173.203125 86.171875 172.320312 84.347656 171.34375 C 82.523438 170.371094 80.753906 169.308594 79.035156 168.160156 C 77.316406 167.011719 75.660156 165.78125 74.0625 164.472656 C 72.464844 163.160156 70.933594 161.773438 69.472656 160.3125 C 68.011719 158.851562 66.625 157.320312 65.3125 155.722656 C 64.003906 154.125 62.773438 152.46875 61.625 150.75 C 60.476562 149.03125 59.414062 147.261719 58.441406 145.4375 C 57.46875 143.617188 56.585938 141.75 55.792969 139.839844 C 55.003906 137.929688 54.308594 135.988281 53.707031 134.007812 C 53.105469 132.03125 52.605469 130.027344 52.203125 128 C 51.800781 125.972656 51.496094 123.933594 51.292969 121.875 C 51.089844 119.820312 50.988281 117.757812 50.988281 115.691406 " clip-rule="evenodd"/></clipPath><radialGradient gradientTransform="matrix(0.599164, 0.806834, -0.798842, 0.593229, 106.477205, 123.309082)" gradientUnits="userSpaceOnUse" r="159.801002" cx="0" id="4e32b96cbb" cy="0" fx="0" fy="0"><stop stop-opacity="1" stop-color="rgb(54.899597%, 32.199097%, 100%)" offset="0"/><stop stop-opacity="1" stop-color="rgb(54.899597%, 32.199097%, 100%)" offset="1"/></radialGradient><clipPath id="09f64e8579"><path d="M 103 93 L 232 93 L 232 138 L 103 138 Z M 103 93 " clip-rule="nonzero"/></clipPath><clipPath id="ca617daca5"><path d="M 124.976562 137.449219 C 125.6875 137.449219 126.398438 137.417969 127.109375 137.347656 C 127.816406 137.277344 128.523438 137.171875 129.222656 137.03125 C 129.921875 136.894531 130.609375 136.722656 131.292969 136.515625 C 131.976562 136.308594 132.644531 136.066406 133.304688 135.792969 C 133.960938 135.523438 134.605469 135.21875 135.234375 134.882812 C 135.863281 134.546875 136.472656 134.179688 137.066406 133.785156 C 137.660156 133.386719 138.230469 132.964844 138.78125 132.511719 C 139.332031 132.058594 139.859375 131.582031 140.363281 131.078125 C 140.867188 130.574219 141.34375 130.046875 141.796875 129.496094 C 142.25 128.945312 142.671875 128.371094 143.070312 127.78125 C 143.464844 127.1875 143.832031 126.578125 144.167969 125.949219 C 144.503906 125.320312 144.808594 124.675781 145.082031 124.019531 C 145.351562 123.359375 145.59375 122.6875 145.800781 122.007812 C 146.007812 121.324219 146.179688 120.632812 146.320312 119.9375 C 146.457031 119.238281 146.5625 118.53125 146.632812 117.824219 C 146.703125 117.113281 146.738281 116.402344 146.738281 115.691406 C 146.738281 114.976562 146.703125 114.265625 146.632812 113.558594 C 146.5625 112.847656 146.457031 112.144531 146.320312 111.445312 C 146.179688 110.746094 146.007812 110.054688 145.800781 109.375 C 145.59375 108.691406 145.351562 108.019531 145.082031 107.363281 C 144.808594 106.703125 144.503906 106.0625 144.167969 105.433594 C 143.832031 104.804688 143.464844 104.191406 143.070312 103.601562 C 142.671875 103.007812 142.25 102.4375 141.796875 101.886719 C 141.34375 101.335938 140.867188 100.808594 140.363281 100.304688 C 139.859375 99.800781 139.332031 99.320312 138.78125 98.867188 C 138.230469 98.417969 137.660156 97.992188 137.066406 97.597656 C 136.472656 97.199219 135.863281 96.835938 135.234375 96.5 C 134.605469 96.164062 133.960938 95.859375 133.304688 95.585938 C 132.644531 95.3125 131.976562 95.074219 131.292969 94.867188 C 130.609375 94.660156 129.921875 94.488281 129.222656 94.347656 C 128.523438 94.207031 127.816406 94.105469 127.109375 94.035156 C 126.398438 93.964844 125.6875 93.929688 124.976562 93.929688 C 124.261719 93.929688 123.550781 93.964844 122.84375 94.035156 C 122.132812 94.105469 121.429688 94.207031 120.730469 94.347656 C 120.03125 94.488281 119.339844 94.660156 118.660156 94.867188 C 117.976562 95.074219 117.308594 95.3125 116.648438 95.585938 C 115.988281 95.859375 115.347656 96.164062 114.71875 96.5 C 114.089844 96.835938 113.480469 97.199219 112.886719 97.597656 C 112.292969 97.992188 111.722656 98.417969 111.171875 98.867188 C 110.621094 99.320312 110.09375 99.800781 109.589844 100.304688 C 109.085938 100.808594 108.605469 101.335938 108.15625 101.886719 C 107.703125 102.4375 107.277344 103.007812 106.882812 103.601562 C 106.488281 104.191406 106.121094 104.804688 105.785156 105.433594 C 105.449219 106.0625 105.144531 106.703125 104.871094 107.363281 C 104.597656 108.019531 104.359375 108.691406 104.152344 109.375 C 103.945312 110.054688 103.773438 110.746094 103.632812 111.445312 C 103.496094 112.144531 103.390625 112.847656 103.320312 113.558594 C 103.25 114.265625 103.214844 114.976562 103.214844 115.691406 C 103.214844 116.402344 103.25 117.113281 103.320312 117.824219 C 103.390625 118.53125 103.496094 119.238281 103.632812 119.9375 C 103.773438 120.632812 103.945312 121.324219 104.152344 122.007812 C 104.359375 122.6875 104.597656 123.359375 104.871094 124.019531 C 105.144531 124.675781 105.449219 125.320312 105.785156 125.949219 C 106.121094 126.578125 106.488281 127.1875 106.882812 127.78125 C 107.277344 128.371094 107.703125 128.945312 108.15625 129.496094 C 108.605469 130.046875 109.085938 130.574219 109.589844 131.078125 C 110.09375 131.582031 110.621094 132.058594 111.171875 132.511719 C 111.722656 132.964844 112.292969 133.386719 112.886719 133.785156 C 113.480469 134.179688 114.089844 134.546875 114.71875 134.882812 C 115.347656 135.21875 115.988281 135.523438 116.648438 135.792969 C 117.308594 136.066406 117.976562 136.308594 118.660156 136.515625 C 119.339844 136.722656 120.03125 136.894531 120.730469 137.03125 C 121.429688 137.171875 122.132812 137.277344 122.84375 137.347656 C 123.550781 137.417969 124.261719 137.449219 124.976562 137.449219 M 209.84375 137.449219 C 210.554688 137.449219 211.265625 137.417969 211.976562 137.347656 C 212.683594 137.277344 213.390625 137.171875 214.089844 137.03125 C 214.789062 136.894531 215.476562 136.722656 216.160156 136.515625 C 216.839844 136.308594 217.511719 136.066406 218.171875 135.792969 C 218.828125 135.523438 219.472656 135.21875 220.101562 134.882812 C 220.730469 134.546875 221.339844 134.179688 221.933594 133.785156 C 222.523438 133.386719 223.097656 132.964844 223.648438 132.511719 C 224.199219 132.058594 224.726562 131.582031 225.230469 131.078125 C 225.734375 130.574219 226.210938 130.046875 226.664062 129.496094 C 227.117188 128.945312 227.539062 128.371094 227.9375 127.78125 C 228.332031 127.1875 228.699219 126.578125 229.035156 125.949219 C 229.371094 125.320312 229.675781 124.675781 229.945312 124.019531 C 230.21875 123.359375 230.460938 122.6875 230.667969 122.007812 C 230.875 121.324219 231.046875 120.632812 231.183594 119.9375 C 231.324219 119.238281 231.429688 118.53125 231.5 117.824219 C 231.570312 117.113281 231.605469 116.402344 231.605469 115.691406 C 231.605469 114.976562 231.570312 114.265625 231.5 113.558594 C 231.429688 112.847656 231.324219 112.144531 231.183594 111.445312 C 231.046875 110.746094 230.875 110.054688 230.667969 109.375 C 230.460938 108.691406 230.21875 108.019531 229.945312 107.363281 C 229.675781 106.703125 229.371094 106.0625 229.035156 105.433594 C 228.699219 104.804688 228.332031 104.191406 227.9375 103.601562 C 227.539062 103.007812 227.117188 102.4375 226.664062 101.886719 C 226.210938 101.335938 225.734375 100.808594 225.230469 100.304688 C 224.726562 99.800781 224.199219 99.320312 223.648438 98.867188 C 223.097656 98.417969 222.523438 97.992188 221.933594 97.597656 C 221.339844 97.199219 220.730469 96.835938 220.101562 96.5 C 219.472656 96.164062 218.828125 95.859375 218.171875 95.585938 C 217.511719 95.3125 216.839844 95.074219 216.160156 94.867188 C 215.476562 94.660156 214.789062 94.488281 214.089844 94.347656 C 213.390625 94.207031 212.683594 94.105469 211.976562 94.035156 C 211.265625 93.964844 210.554688 93.929688 209.84375 93.929688 C 209.128906 93.929688 208.417969 93.964844 207.710938 94.035156 C 207 94.105469 206.296875 94.207031 205.597656 94.347656 C 204.898438 94.488281 204.207031 94.660156 203.527344 94.867188 C 202.84375 95.074219 202.175781 95.3125 201.515625 95.585938 C 200.855469 95.859375 200.214844 96.164062 199.585938 96.5 C 198.957031 96.835938 198.347656 97.199219 197.753906 97.597656 C 197.160156 97.992188 196.589844 98.417969 196.039062 98.867188 C 195.488281 99.320312 194.960938 99.800781 194.457031 100.304688 C 193.953125 100.808594 193.472656 101.335938 193.023438 101.886719 C 192.570312 102.4375 192.144531 103.007812 191.75 103.601562 C 191.355469 104.191406 190.988281 104.804688 190.652344 105.433594 C 190.316406 106.0625 190.011719 106.703125 189.738281 107.363281 C 189.464844 108.019531 189.226562 108.691406 189.019531 109.375 C 188.8125 110.054688 188.640625 110.746094 188.5 111.445312 C 188.359375 112.144531 188.257812 112.847656 188.1875 113.558594 C 188.117188 114.265625 188.082031 114.976562 188.082031 115.691406 C 188.082031 116.402344 188.117188 117.113281 188.1875 117.824219 C 188.257812 118.53125 188.359375 119.238281 188.5 119.9375 C 188.640625 120.632812 188.8125 121.324219 189.019531 122.007812 C 189.226562 122.6875 189.464844 123.359375 189.738281 124.019531 C 190.011719 124.675781 190.316406 125.320312 190.652344 125.949219 C 190.988281 126.578125 191.355469 127.1875 191.75 127.78125 C 192.144531 128.371094 192.570312 128.945312 193.023438 129.496094 C 193.472656 130.046875 193.953125 130.574219 194.457031 131.078125 C 194.960938 131.582031 195.488281 132.058594 196.039062 132.511719 C 196.589844 132.964844 197.160156 133.386719 197.753906 133.785156 C 198.347656 134.179688 198.957031 134.546875 199.585938 134.882812 C 200.214844 135.21875 200.855469 135.523438 201.515625 135.792969 C 202.175781 136.066406 202.84375 136.308594 203.527344 136.515625 C 204.207031 136.722656 204.898438 136.894531 205.597656 137.03125 C 206.296875 137.171875 207 137.277344 207.710938 137.347656 C 208.417969 137.417969 209.128906 137.449219 209.84375 137.449219 " clip-rule="evenodd"/></clipPath></defs><g clip-path="url(#0f45400caf)"><g clip-path="url(#a4740bfc1e)"><path fill="url(#4e32b96cbb)" d="M 215.679688 -149.351562 L -127.050781 105.164062 L 121.316406 439.613281 L 464.046875 185.097656 Z M 215.679688 -149.351562 " fill-rule="nonzero"/></g></g><g clip-path="url(#09f64e8579)"><g clip-path="url(#ca617daca5)"><path fill="#8c52ff" d="M 103.214844 93.929688 L 103.214844 137.449219 L 231.605469 137.449219 L 231.605469 93.929688 Z M 103.214844 93.929688 " fill-opacity="1" fill-rule="nonzero"/></g></g></svg>