<svg xmlns="http://www.w3.org/2000/svg" xmlns:xlink="http://www.w3.org/1999/xlink" width="460" zoomAndPan="magnify" viewBox="0 0 345 89.999999" height="120" preserveAspectRatio="xMidYMid meet" version="1.0"><defs><g/><clipPath id="86ca65363b"><path d="M 16.5 18 L 86.25 18 L 86.25 77 L 16.5 77 Z M 16.5 18 " clip-rule="nonzero"/></clipPath><clipPath id="bf501c4528"><path d="M 16.5 41.832031 C 16.5 28.929688 26.960938 18.46875 39.863281 18.46875 L 63.226562 18.46875 C 76.128906 18.46875 86.589844 28.929688 86.589844 41.832031 C 86.589844 54.738281 76.128906 65.195312 63.226562 65.195312 L 54.324219 65.195312 L 59.230469 71.851562 C 61.148438 74.445312 58.230469 77.839844 55.375 76.34375 L 29.910156 62.976562 C 28.914062 62.507812 27.953125 61.96875 27.03125 61.363281 C 26.109375 60.757812 25.234375 60.089844 24.410156 59.363281 C 23.582031 58.632812 22.808594 57.847656 22.09375 57.007812 C 21.378906 56.171875 20.722656 55.285156 20.132812 54.355469 C 19.542969 53.421875 19.019531 52.453125 18.566406 51.449219 C 18.113281 50.445312 17.734375 49.410156 17.425781 48.351562 C 17.117188 47.292969 16.886719 46.21875 16.730469 45.125 C 16.578125 44.035156 16.5 42.9375 16.5 41.832031 M 26.3125 41.832031 C 26.3125 40.945312 26.398438 40.0625 26.574219 39.191406 C 26.746094 38.316406 27.003906 37.46875 27.34375 36.648438 C 27.683594 35.824219 28.101562 35.046875 28.597656 34.304688 C 29.089844 33.566406 29.652344 32.882812 30.28125 32.25 C 30.910156 31.621094 31.59375 31.0625 32.335938 30.566406 C 33.074219 30.074219 33.855469 29.65625 34.675781 29.316406 C 35.5 28.972656 36.347656 28.71875 37.21875 28.542969 C 38.09375 28.371094 38.972656 28.28125 39.863281 28.28125 L 63.226562 28.28125 C 64.117188 28.28125 64.996094 28.371094 65.871094 28.542969 C 66.742188 28.71875 67.589844 28.972656 68.414062 29.316406 C 69.234375 29.65625 70.015625 30.074219 70.753906 30.566406 C 71.496094 31.0625 72.179688 31.621094 72.808594 32.25 C 73.4375 32.882812 74 33.566406 74.492188 34.304688 C 74.988281 35.046875 75.40625 35.824219 75.746094 36.648438 C 76.085938 37.46875 76.34375 38.316406 76.515625 39.191406 C 76.691406 40.0625 76.777344 40.945312 76.777344 41.832031 C 76.777344 42.722656 76.691406 43.605469 76.515625 44.476562 C 76.34375 45.351562 76.085938 46.199219 75.746094 47.019531 C 75.40625 47.839844 74.988281 48.621094 74.492188 49.363281 C 74 50.101562 73.4375 50.785156 72.808594 51.414062 C 72.179688 52.042969 71.496094 52.605469 70.753906 53.101562 C 70.015625 53.59375 69.234375 54.011719 68.414062 54.351562 C 67.589844 54.695312 66.742188 54.949219 65.871094 55.125 C 64.996094 55.296875 64.117188 55.382812 63.226562 55.382812 L 39.863281 55.382812 C 38.972656 55.382812 38.09375 55.296875 37.21875 55.125 C 36.347656 54.949219 35.5 54.695312 34.675781 54.351562 C 33.855469 54.011719 33.074219 53.59375 32.335938 53.101562 C 31.59375 52.605469 30.910156 52.042969 30.28125 51.414062 C 29.652344 50.785156 29.089844 50.101562 28.597656 49.363281 C 28.101562 48.621094 27.683594 47.839844 27.34375 47.019531 C 27.003906 46.199219 26.746094 45.351562 26.574219 44.476562 C 26.398438 43.605469 26.3125 42.722656 26.3125 41.832031 " clip-rule="evenodd"/></clipPath><radialGradient gradientTransform="matrix(0.599164, 0.806834, -0.798842, 0.59323, 38.227357, 43.469706)" gradientUnits="userSpaceOnUse" r="34.313884" cx="0" id="cefbdc6ba9" cy="0" fx="0" fy="0"><stop stop-opacity="1" stop-color="rgb(54.899597%, 32.199097%, 100%)" offset="0"/><stop stop-opacity="1" stop-color="rgb(54.899597%, 32.199097%, 100%)" offset="1"/></radialGradient><clipPath id="a779a8fcca"><path d="M 37 37 L 66 37 L 66 47 L 37 47 Z M 37 37 " clip-rule="nonzero"/></clipPath><clipPath id="d6eea03702"><path d="M 42.199219 46.507812 C 42.507812 46.507812 42.808594 46.476562 43.109375 46.417969 C 43.410156 46.355469 43.703125 46.269531 43.988281 46.152344 C 44.269531 46.035156 44.539062 45.890625 44.796875 45.71875 C 45.050781 45.546875 45.285156 45.355469 45.503906 45.136719 C 45.71875 44.921875 45.914062 44.683594 46.085938 44.429688 C 46.253906 44.175781 46.398438 43.90625 46.515625 43.621094 C 46.632812 43.339844 46.722656 43.046875 46.78125 42.746094 C 46.84375 42.445312 46.871094 42.140625 46.871094 41.832031 C 46.871094 41.527344 46.84375 41.222656 46.78125 40.921875 C 46.722656 40.621094 46.632812 40.328125 46.515625 40.046875 C 46.398438 39.761719 46.253906 39.492188 46.085938 39.238281 C 45.914062 38.984375 45.71875 38.746094 45.503906 38.53125 C 45.285156 38.3125 45.050781 38.117188 44.796875 37.949219 C 44.539062 37.777344 44.269531 37.632812 43.988281 37.515625 C 43.703125 37.398438 43.410156 37.3125 43.109375 37.25 C 42.808594 37.191406 42.507812 37.160156 42.199219 37.160156 C 41.894531 37.160156 41.589844 37.191406 41.289062 37.25 C 40.988281 37.3125 40.695312 37.398438 40.410156 37.515625 C 40.128906 37.632812 39.859375 37.777344 39.605469 37.949219 C 39.347656 38.117188 39.113281 38.3125 38.894531 38.53125 C 38.679688 38.746094 38.484375 38.984375 38.3125 39.238281 C 38.144531 39.492188 38 39.761719 37.882812 40.046875 C 37.765625 40.328125 37.675781 40.621094 37.617188 40.921875 C 37.558594 41.222656 37.527344 41.527344 37.527344 41.832031 C 37.527344 42.140625 37.558594 42.445312 37.617188 42.746094 C 37.675781 43.046875 37.765625 43.339844 37.882812 43.621094 C 38 43.90625 38.144531 44.175781 38.3125 44.429688 C 38.484375 44.683594 38.679688 44.921875 38.894531 45.136719 C 39.113281 45.355469 39.347656 45.546875 39.605469 45.71875 C 39.859375 45.890625 40.128906 46.035156 40.410156 46.152344 C 40.695312 46.269531 40.988281 46.355469 41.289062 46.417969 C 41.589844 46.476562 41.894531 46.507812 42.199219 46.507812 M 60.421875 46.507812 C 60.730469 46.507812 61.035156 46.476562 61.335938 46.417969 C 61.636719 46.355469 61.925781 46.269531 62.210938 46.152344 C 62.496094 46.035156 62.765625 45.890625 63.019531 45.71875 C 63.273438 45.546875 63.511719 45.355469 63.726562 45.136719 C 63.945312 44.921875 64.136719 44.683594 64.308594 44.429688 C 64.480469 44.175781 64.621094 43.90625 64.738281 43.621094 C 64.855469 43.339844 64.945312 43.046875 65.003906 42.746094 C 65.066406 42.445312 65.09375 42.140625 65.09375 41.832031 C 65.09375 41.527344 65.066406 41.222656 65.003906 40.921875 C 64.945312 40.621094 64.855469 40.328125 64.738281 40.046875 C 64.621094 39.761719 64.480469 39.492188 64.308594 39.238281 C 64.136719 38.984375 63.945312 38.746094 63.726562 38.53125 C 63.511719 38.3125 63.273438 38.117188 63.019531 37.949219 C 62.765625 37.777344 62.496094 37.632812 62.210938 37.515625 C 61.925781 37.398438 61.636719 37.3125 61.335938 37.25 C 61.035156 37.191406 60.730469 37.160156 60.421875 37.160156 C 60.117188 37.160156 59.8125 37.191406 59.511719 37.25 C 59.210938 37.3125 58.917969 37.398438 58.636719 37.515625 C 58.351562 37.632812 58.082031 37.777344 57.828125 37.949219 C 57.570312 38.117188 57.335938 38.3125 57.117188 38.53125 C 56.902344 38.746094 56.707031 38.984375 56.539062 39.238281 C 56.367188 39.492188 56.222656 39.761719 56.105469 40.046875 C 55.988281 40.328125 55.898438 40.621094 55.839844 40.921875 C 55.78125 41.222656 55.75 41.527344 55.75 41.832031 C 55.75 42.140625 55.78125 42.445312 55.839844 42.746094 C 55.898438 43.046875 55.988281 43.339844 56.105469 43.621094 C 56.222656 43.90625 56.367188 44.175781 56.539062 44.429688 C 56.707031 44.683594 56.902344 44.921875 57.117188 45.136719 C 57.335938 45.355469 57.570312 45.546875 57.828125 45.71875 C 58.082031 45.890625 58.351562 46.035156 58.636719 46.152344 C 58.917969 46.269531 59.210938 46.355469 59.511719 46.417969 C 59.8125 46.476562 60.117188 46.507812 60.421875 46.507812 " clip-rule="evenodd"/></clipPath></defs><g fill="#ffffff" fill-opacity="1"><g transform="translate(61.312499, 68.104063)"><g/></g></g><g fill="#ffffff" fill-opacity="1"><g transform="translate(78.290209, 68.104063)"><g/></g></g><g fill="#ffffff" fill-opacity="1"><g transform="translate(95.273434, 68.104063)"><g><path d="M 11.28125 0 L 0.875 0 L 16.109375 -26.4375 L 1.625 -51.40625 L 12.40625 -51.40625 L 23.0625 -32.984375 L 23.9375 -32.984375 L 34.765625 -51.40625 L 45.03125 -51.40625 L 30.546875 -26.4375 L 45.78125 0 L 35.015625 0 L 23.59375 -19.828125 L 22.71875 -19.828125 Z M 11.28125 0 "/></g></g></g><g fill="#ffffff" fill-opacity="1"><g transform="translate(141.918188, 68.104063)"><g><path d="M 5.59375 0 L 5.59375 -38.78125 L 14.9375 -38.78125 L 14.9375 -33.078125 L 15.6875 -32.90625 C 18.09375 -37.3125 22.003906 -39.515625 27.421875 -39.515625 C 31.898438 -39.515625 35.1875 -38.296875 37.28125 -35.859375 C 39.382812 -33.421875 40.4375 -29.867188 40.4375 -25.203125 L 40.4375 0 L 30.6875 0 L 30.6875 -24.015625 C 30.6875 -26.585938 30.171875 -28.441406 29.140625 -29.578125 C 28.109375 -30.722656 26.457031 -31.296875 24.1875 -31.296875 C 21.394531 -31.296875 19.21875 -30.390625 17.65625 -28.578125 C 16.101562 -26.773438 15.328125 -23.941406 15.328125 -20.078125 L 15.328125 0 Z M 5.59375 0 "/></g></g></g><g fill="#ffffff" fill-opacity="1"><g transform="translate(187.332668, 68.104063)"><g><path d="M 22.53125 0.734375 C 18.738281 0.734375 15.40625 -0.0390625 12.53125 -1.59375 C 9.664062 -3.15625 7.441406 -5.441406 5.859375 -8.453125 C 4.273438 -11.460938 3.484375 -15.101562 3.484375 -19.375 C 3.484375 -23.632812 4.273438 -27.273438 5.859375 -30.296875 C 7.441406 -33.328125 9.664062 -35.617188 12.53125 -37.171875 C 15.40625 -38.734375 18.738281 -39.515625 22.53125 -39.515625 C 26.332031 -39.515625 29.664062 -38.734375 32.53125 -37.171875 C 35.40625 -35.617188 37.640625 -33.328125 39.234375 -30.296875 C 40.828125 -27.273438 41.625 -23.632812 41.625 -19.375 C 41.625 -15.101562 40.828125 -11.460938 39.234375 -8.453125 C 37.640625 -5.441406 35.40625 -3.15625 32.53125 -1.59375 C 29.664062 -0.0390625 26.332031 0.734375 22.53125 0.734375 Z M 22.53125 -7.53125 C 28.5625 -7.53125 31.578125 -11.476562 31.578125 -19.375 C 31.578125 -23.476562 30.800781 -26.484375 29.25 -28.390625 C 27.707031 -30.296875 25.46875 -31.25 22.53125 -31.25 C 16.507812 -31.25 13.5 -27.289062 13.5 -19.375 C 13.5 -11.476562 16.507812 -7.53125 22.53125 -7.53125 Z M 22.53125 -7.53125 "/></g></g></g><g fill="#ffffff" fill-opacity="1"><g transform="translate(232.395642, 68.104063)"><g><path d="M 26.75 -9.25 L 29.28125 -2.046875 C 28.226562 -1.171875 26.90625 -0.488281 25.3125 0 C 23.71875 0.488281 21.914062 0.734375 19.90625 0.734375 C 15.707031 0.734375 12.515625 -0.40625 10.328125 -2.6875 C 8.148438 -4.976562 7.0625 -8.300781 7.0625 -12.65625 L 7.0625 -31.078125 L 1.15625 -31.078125 L 1.15625 -38.8125 L 7.0625 -38.8125 L 7.0625 -46.375 L 16.8125 -47.953125 L 16.8125 -38.8125 L 27.8125 -38.8125 L 27.8125 -31.078125 L 16.8125 -31.078125 L 16.8125 -13.359375 C 16.8125 -11.441406 17.207031 -10.039062 18 -9.15625 C 18.800781 -8.28125 19.960938 -7.84375 21.484375 -7.84375 C 23.210938 -7.84375 24.722656 -8.3125 26.015625 -9.25 Z M 26.75 -9.25 "/></g></g></g><g fill="#ffffff" fill-opacity="1"><g transform="translate(262.519649, 68.104063)"><g><path d="M 38.328125 -17.1875 L 13.390625 -17.1875 C 13.671875 -13.8125 14.628906 -11.359375 16.265625 -9.828125 C 17.910156 -8.296875 20.15625 -7.53125 23 -7.53125 C 25.21875 -7.53125 27.019531 -7.941406 28.40625 -8.765625 C 29.789062 -9.597656 30.90625 -10.859375 31.75 -12.546875 L 32.484375 -12.546875 L 38.953125 -8.40625 C 37.691406 -5.6875 35.78125 -3.484375 33.21875 -1.796875 C 30.664062 -0.109375 27.257812 0.734375 23 0.734375 C 18.988281 0.734375 15.523438 -0.0234375 12.609375 -1.546875 C 9.691406 -3.066406 7.441406 -5.332031 5.859375 -8.34375 C 4.273438 -11.363281 3.484375 -15.039062 3.484375 -19.375 C 3.484375 -23.78125 4.3125 -27.492188 5.96875 -30.515625 C 7.632812 -33.535156 9.882812 -35.789062 12.71875 -37.28125 C 15.5625 -38.769531 18.753906 -39.515625 22.296875 -39.515625 C 27.773438 -39.515625 31.972656 -38.0625 34.890625 -35.15625 C 37.804688 -32.25 39.265625 -27.984375 39.265625 -22.359375 C 39.265625 -20.316406 39.195312 -18.734375 39.0625 -17.609375 Z M 29.953125 -23.484375 C 29.859375 -26.441406 29.171875 -28.59375 27.890625 -29.9375 C 26.617188 -31.28125 24.753906 -31.953125 22.296875 -31.953125 C 17.367188 -31.953125 14.472656 -29.128906 13.609375 -23.484375 Z M 29.953125 -23.484375 "/></g></g></g><g clip-path="url(#86ca65363b)"><g clip-path="url(#bf501c4528)"><path fill="url(#cefbdc6ba9)" d="M 61.457031 -14.914062 L -11.917969 39.574219 L 41.292969 111.226562 L 114.667969 56.738281 Z M 61.457031 -14.914062 " fill-rule="nonzero"/></g></g><g clip-path="url(#a779a8fcca)"><g clip-path="url(#d6eea03702)"><path fill="#8c52ff" d="M 37.527344 37.160156 L 37.527344 46.507812 L 65.09375 46.507812 L 65.09375 37.160156 Z M 37.527344 37.160156 " fill-opacity="1" fill-rule="nonzero"/></g></g></svg>